<svg width="690" height="1004" viewBox="0 0 690 1004" fill="none" xmlns="http://www.w3.org/2000/svg">
<circle cx="61" cy="61" r="59.5" transform="matrix(-1 0 0 1 127 876.033)" stroke="#587FCE" stroke-width="3"/>
<circle cx="66" cy="937.033" r="30.5" transform="rotate(180 66 937.033)" stroke="#587FCE" stroke-width="3"/>
<path d="M4.99996 937.033C4.99996 937.586 5.44767 938.033 5.99996 938.033C6.55224 938.033 6.99996 937.586 6.99996 937.033L4.99996 937.033ZM0.666667 6.0332C0.666666 8.97872 3.05448 11.3665 6 11.3665C8.94552 11.3665 11.3333 8.97872 11.3333 6.0332C11.3333 3.08768 8.94552 0.69987 6 0.69987C3.05448 0.69987 0.666667 3.08768 0.666667 6.0332ZM6.99996 937.033L7 6.0332L5 6.0332L4.99996 937.033L6.99996 937.033Z" fill="#587FCE"/>
<path d="M66 997.033C65.4477 997.033 65 997.481 65 998.033C65 998.585 65.4477 999.033 66 999.033V997.033ZM684 992.7C681.054 992.7 678.667 995.088 678.667 998.033C678.667 1000.98 681.054 1003.37 684 1003.37C686.946 1003.37 689.333 1000.98 689.333 998.033C689.333 995.088 686.946 992.7 684 992.7ZM66 999.033H684V997.033H66V999.033Z" fill="#587FCE"/>
</svg>
